<?xml version="1.0" standalone="no"?>
<svg viewBox="0 0 200 200" xmlns="http://www.w3.org/2000/svg">
  <path d="M33.1,-51.8C47.1,-49.2,65.5,-48.8,70.5,-40.6C75.6,-32.3,67.2,-16.1,63.9,-1.9C60.5,12.3,62.1,24.5,56.8,32.4C51.6,40.3,39.5,43.8,28.8,49.7C18.2,55.6,9.1,63.9,-1,65.6C-11,67.2,-22,62.3,-27.8,53.5C-33.6,44.8,-34.1,32.4,-39.6,22.8C-45.2,13.3,-55.8,6.7,-60,-2.5C-64.3,-11.6,-62.3,-23.2,-56,-31.5C-49.8,-39.9,-39.4,-45.1,-29.4,-50C-19.3,-54.8,-9.7,-59.5,-0.1,-59.4C9.6,-59.3,19.1,-54.5,33.1,-51.8Z" transform="translate(100 100)" />
</svg>
