<svg viewBox="0 0 200 100" xmlns="http://www.w3.org/2000/svg">
  <path class='path' fill="none" stroke="#feb633"
    d="M 47.55 7.6 L 44.25 13.95 A 5.499 5.499 0 0 1 43.861 14.616 Q 43.456 15.202 42.975 15.5 A 2.958 2.958 0 0 1 41.877 15.902 A 3.909 3.909 0 0 1 41.25 15.95 A 3.126 3.126 0 0 1 40.37 15.815 Q 39.989 15.703 39.577 15.499 A 7.062 7.062 0 0 1 39 15.175 A 60.01 60.01 0 0 0 37.82 14.464 Q 37.006 13.985 36.05 13.45 Q 34.35 12.5 32.075 11.725 Q 29.8 10.95 26.7 10.95 A 19.595 19.595 0 0 0 24.389 11.08 Q 23.21 11.22 22.195 11.512 A 11.322 11.322 0 0 0 21.825 11.625 A 11.667 11.667 0 0 0 19.858 12.461 A 9.167 9.167 0 0 0 18.325 13.5 Q 16.9 14.7 16.2 16.375 A 9.146 9.146 0 0 0 15.529 19.251 A 10.896 10.896 0 0 0 15.5 20.05 A 7.515 7.515 0 0 0 15.763 22.085 A 5.874 5.874 0 0 0 16.925 24.3 A 10.706 10.706 0 0 0 18.943 26.143 A 14.08 14.08 0 0 0 20.7 27.2 Q 23.05 28.4 26.05 29.35 Q 29.05 30.3 32.175 31.375 Q 35.3 32.45 38.3 33.875 Q 41.3 35.3 43.65 37.475 A 16.055 16.055 0 0 1 47.054 42.028 A 18.7 18.7 0 0 1 47.425 42.8 A 15.091 15.091 0 0 1 48.471 46.169 Q 48.85 48.13 48.85 50.45 A 25.367 25.367 0 0 1 47.744 58 A 23.599 23.599 0 0 1 47.175 59.625 Q 45.5 63.9 42.275 67.075 A 22.303 22.303 0 0 1 36.366 71.212 A 26.642 26.642 0 0 1 34.4 72.075 A 25.823 25.823 0 0 1 28.572 73.576 A 34.355 34.355 0 0 1 23.75 73.9 Q 20.3 73.9 16.95 73.225 Q 13.6 72.55 10.525 71.3 Q 7.45 70.05 4.775 68.3 A 28.533 28.533 0 0 1 0.399 64.8 A 26.297 26.297 0 0 1 0 64.4 L 3.9 57.95 Q 4.45 57.25 5.225 56.775 Q 6 56.3 6.95 56.3 A 3.579 3.579 0 0 1 8.124 56.511 Q 8.857 56.765 9.65 57.325 A 64.484 64.484 0 0 0 11.019 58.265 Q 11.964 58.897 13.075 59.6 A 22.546 22.546 0 0 0 15.225 60.794 A 30.628 30.628 0 0 0 17.725 61.875 Q 20.111 62.79 23.353 62.888 A 26.194 26.194 0 0 0 24.15 62.9 A 19.487 19.487 0 0 0 27.634 62.609 Q 30.931 62.009 33.05 60.175 A 8.829 8.829 0 0 0 35.908 55.238 A 13.472 13.472 0 0 0 36.2 52.35 A 9.319 9.319 0 0 0 35.991 50.322 Q 35.654 48.811 34.775 47.7 Q 33.35 45.9 31 44.675 A 25.329 25.329 0 0 0 28.151 43.416 A 32.386 32.386 0 0 0 25.65 42.6 Q 22.65 41.75 19.55 40.75 Q 16.45 39.75 13.45 38.35 Q 10.45 36.95 8.1 34.7 A 15.774 15.774 0 0 1 5.2 30.885 A 19.317 19.317 0 0 1 4.325 29.075 A 16.622 16.622 0 0 1 3.351 25.821 Q 3.041 24.249 2.944 22.442 A 31.616 31.616 0 0 1 2.9 20.75 Q 2.9 16.8 4.475 13.05 Q 6.05 9.3 9.075 6.4 A 21.523 21.523 0 0 1 14.102 2.842 A 26.413 26.413 0 0 1 16.5 1.75 Q 20.9 0 26.55 0 A 35.895 35.895 0 0 1 34.159 0.782 A 30.824 30.824 0 0 1 38.35 2 A 28.134 28.134 0 0 1 44.612 5.219 A 24.636 24.636 0 0 1 47.55 7.6 Z" />
</svg>